<svg width="31" height="31" viewBox="0 0 31 31" fill="none" xmlns="http://www.w3.org/2000/svg">
<path fill-rule="evenodd" clip-rule="evenodd" d="M14.5078 3.47388C8.4672 3.47388 3.57031 8.37076 3.57031 14.4114C3.57031 20.452 8.4672 25.3489 14.5078 25.3489C20.5484 25.3489 25.4453 20.452 25.4453 14.4114C25.4453 8.37076 20.5484 3.47388 14.5078 3.47388ZM1.69531 14.4114C1.69531 7.33523 7.43166 1.59888 14.5078 1.59888C21.584 1.59888 27.3203 7.33523 27.3203 14.4114C27.3203 21.4875 21.584 27.2239 14.5078 27.2239C7.43166 27.2239 1.69531 21.4875 1.69531 14.4114ZM24.4699 24.3735C24.836 24.0073 25.4296 24.0073 25.7957 24.3735L28.2957 26.8735C28.6618 27.2396 28.6618 27.8332 28.2957 28.1993C27.9296 28.5654 27.336 28.5654 26.9699 28.1993L24.4699 25.6993C24.1038 25.3332 24.1038 24.7396 24.4699 24.3735Z" fill="#E2E8F0"/>
</svg>
